<svg id="visual" viewBox="0 0 960 540" width="960" height="540" xmlns="http://www.w3.org/2000/svg" xmlns:xlink="http://www.w3.org/1999/xlink" version="1.1"><path d="M0 93L32 99.3C64 105.7 128 118.3 192 115.7C256 113 320 95 384 91.3C448 87.7 512 98.3 576 101C640 103.7 704 98.3 768 93.8C832 89.3 896 85.7 928 83.8L960 82L960 0L928 0C896 0 832 0 768 0C704 0 640 0 576 0C512 0 448 0 384 0C320 0 256 0 192 0C128 0 64 0 32 0L0 0Z" fill="#ffffff"></path><path d="M0 174L32 176.7C64 179.3 128 184.7 192 183.7C256 182.7 320 175.3 384 172.7C448 170 512 172 576 173C640 174 704 174 768 173C832 172 896 170 928 169L960 168L960 80L928 81.8C896 83.7 832 87.3 768 91.8C704 96.3 640 101.7 576 99C512 96.3 448 85.7 384 89.3C320 93 256 111 192 113.7C128 116.3 64 103.7 32 97.3L0 91Z" fill="#d5defa"></path><path d="M0 222L32 223.8C64 225.7 128 229.3 192 228.5C256 227.7 320 222.3 384 222.3C448 222.3 512 227.7 576 232.2C640 236.7 704 240.3 768 240.3C832 240.3 896 236.7 928 234.8L960 233L960 166L928 167C896 168 832 170 768 171C704 172 640 172 576 171C512 170 448 168 384 170.7C320 173.3 256 180.7 192 181.7C128 182.7 64 177.3 32 174.7L0 172Z" fill="#a9bef5"></path><path d="M0 341L32 346.5C64 352 128 363 192 368.5C256 374 320 374 384 383C448 392 512 410 576 412.7C640 415.3 704 402.7 768 396.3C832 390 896 390 928 390L960 390L960 231L928 232.8C896 234.7 832 238.3 768 238.3C704 238.3 640 234.7 576 230.2C512 225.7 448 220.3 384 220.3C320 220.3 256 225.7 192 226.5C128 227.3 64 223.7 32 221.8L0 220Z" fill="#76a0ef"></path><path d="M0 541L32 541C64 541 128 541 192 541C256 541 320 541 384 541C448 541 512 541 576 541C640 541 704 541 768 541C832 541 896 541 928 541L960 541L960 388L928 388C896 388 832 388 768 394.3C704 400.7 640 413.3 576 410.7C512 408 448 390 384 381C320 372 256 372 192 366.5C128 361 64 350 32 344.5L0 339Z" fill="#2583e8"></path></svg>